<mxfile host="app.diagrams.net" modified="2024-04-01T20:19:35.637Z" agent="Mozilla/5.0 (Windows NT 10.0; Win64; x64) AppleWebKit/537.36 (KHTML, like Gecko) Chrome/123.0.0.0 Safari/537.36" etag="tPaHVIvi1PzBMvDP77_v" version="24.2.0" type="github">
  <diagram name="Page-1" id="7HDTPsjy5faUSJxJA2N0">
    <mxGraphModel dx="1220" dy="660" grid="1" gridSize="10" guides="1" tooltips="1" connect="1" arrows="1" fold="1" page="1" pageScale="1" pageWidth="850" pageHeight="1100" math="0" shadow="0">
      <root>
        <mxCell id="0" />
        <mxCell id="1" parent="0" />
        <mxCell id="UMMroq3Rx2yGk2AZ-Iq6-1" value="&lt;font style=&quot;font-size: 22px;&quot;&gt;1 mol&lt;/font&gt;" style="ellipse;whiteSpace=wrap;html=1;" vertex="1" parent="1">
          <mxGeometry x="80" y="200" width="120" height="80" as="geometry" />
        </mxCell>
        <mxCell id="UMMroq3Rx2yGk2AZ-Iq6-2" value="&lt;font style=&quot;font-size: 19px;&quot;&gt;gramm ?&lt;/font&gt;" style="ellipse;whiteSpace=wrap;html=1;" vertex="1" parent="1">
          <mxGeometry x="540" y="200" width="120" height="80" as="geometry" />
        </mxCell>
        <mxCell id="UMMroq3Rx2yGk2AZ-Iq6-3" value="" style="endArrow=classic;html=1;rounded=0;entryX=0;entryY=0.5;entryDx=0;entryDy=0;" edge="1" parent="1" target="UMMroq3Rx2yGk2AZ-Iq6-2">
          <mxGeometry width="50" height="50" relative="1" as="geometry">
            <mxPoint x="200" y="239.5" as="sourcePoint" />
            <mxPoint x="410" y="239.5" as="targetPoint" />
            <Array as="points" />
          </mxGeometry>
        </mxCell>
        <mxCell id="UMMroq3Rx2yGk2AZ-Iq6-4" value="&lt;font style=&quot;font-size: 19px;&quot;&gt;1 mol&amp;nbsp; = 6.02 * 10&lt;sup&gt;&amp;nbsp;23 число Авагадро&lt;/sup&gt;&lt;/font&gt;" style="rounded=1;whiteSpace=wrap;html=1;" vertex="1" parent="1">
          <mxGeometry x="90" y="80" width="570" height="60" as="geometry" />
        </mxCell>
        <mxCell id="UMMroq3Rx2yGk2AZ-Iq6-19" value="Пересчитать mol&amp;nbsp; в gramms" style="shape=table;startSize=30;container=1;collapsible=1;childLayout=tableLayout;fixedRows=1;rowLines=0;fontStyle=1;align=center;resizeLast=1;html=1;whiteSpace=wrap;" vertex="1" parent="1">
          <mxGeometry x="115" y="310" width="520" height="250" as="geometry" />
        </mxCell>
        <mxCell id="UMMroq3Rx2yGk2AZ-Iq6-20" value="" style="shape=tableRow;horizontal=0;startSize=0;swimlaneHead=0;swimlaneBody=0;fillColor=none;collapsible=0;dropTarget=0;points=[[0,0.5],[1,0.5]];portConstraint=eastwest;top=0;left=0;right=0;bottom=0;html=1;" vertex="1" parent="UMMroq3Rx2yGk2AZ-Iq6-19">
          <mxGeometry y="30" width="520" height="40" as="geometry" />
        </mxCell>
        <mxCell id="UMMroq3Rx2yGk2AZ-Iq6-21" value="" style="shape=partialRectangle;connectable=0;fillColor=none;top=0;left=0;bottom=0;right=0;fontStyle=1;overflow=hidden;html=1;whiteSpace=wrap;" vertex="1" parent="UMMroq3Rx2yGk2AZ-Iq6-20">
          <mxGeometry width="125" height="40" as="geometry">
            <mxRectangle width="125" height="40" as="alternateBounds" />
          </mxGeometry>
        </mxCell>
        <mxCell id="UMMroq3Rx2yGk2AZ-Iq6-22" value="&lt;span style=&quot;font-weight: normal;&quot;&gt;Na&lt;span style=&quot;font-size: 10px;&quot;&gt;&lt;sup&gt;+&lt;/sup&gt;&lt;/span&gt;= 23&amp;nbsp; &amp;nbsp; &amp;nbsp; &amp;nbsp; Cl&lt;sup&gt;-&lt;/sup&gt; =35&amp;nbsp; &amp;nbsp;вес =&amp;nbsp; 23 + 35 = 58&lt;/span&gt;" style="shape=partialRectangle;connectable=0;fillColor=none;top=0;left=0;bottom=0;right=0;align=left;spacingLeft=6;fontStyle=5;overflow=hidden;html=1;whiteSpace=wrap;" vertex="1" parent="UMMroq3Rx2yGk2AZ-Iq6-20">
          <mxGeometry x="125" width="395" height="40" as="geometry">
            <mxRectangle width="395" height="40" as="alternateBounds" />
          </mxGeometry>
        </mxCell>
        <mxCell id="UMMroq3Rx2yGk2AZ-Iq6-23" value="" style="shape=tableRow;horizontal=0;startSize=0;swimlaneHead=0;swimlaneBody=0;fillColor=none;collapsible=0;dropTarget=0;points=[[0,0.5],[1,0.5]];portConstraint=eastwest;top=0;left=0;right=0;bottom=1;html=1;" vertex="1" parent="UMMroq3Rx2yGk2AZ-Iq6-19">
          <mxGeometry y="70" width="520" height="60" as="geometry" />
        </mxCell>
        <mxCell id="UMMroq3Rx2yGk2AZ-Iq6-24" value="&lt;font style=&quot;font-size: 16px;&quot;&gt;4.5 mol NaCl&lt;/font&gt;" style="shape=partialRectangle;connectable=0;fillColor=none;top=0;left=0;bottom=0;right=0;fontStyle=1;overflow=hidden;html=1;whiteSpace=wrap;" vertex="1" parent="UMMroq3Rx2yGk2AZ-Iq6-23">
          <mxGeometry width="125" height="60" as="geometry">
            <mxRectangle width="125" height="60" as="alternateBounds" />
          </mxGeometry>
        </mxCell>
        <mxCell id="UMMroq3Rx2yGk2AZ-Iq6-25" value="&lt;font style=&quot;font-size: 21px;&quot;&gt;4.5 mol * 58 = 261 gramm&lt;/font&gt;" style="shape=partialRectangle;connectable=0;fillColor=none;top=0;left=0;bottom=0;right=0;align=left;spacingLeft=6;fontStyle=5;overflow=hidden;html=1;whiteSpace=wrap;" vertex="1" parent="UMMroq3Rx2yGk2AZ-Iq6-23">
          <mxGeometry x="125" width="395" height="60" as="geometry">
            <mxRectangle width="395" height="60" as="alternateBounds" />
          </mxGeometry>
        </mxCell>
        <mxCell id="UMMroq3Rx2yGk2AZ-Iq6-26" value="" style="shape=tableRow;horizontal=0;startSize=0;swimlaneHead=0;swimlaneBody=0;fillColor=none;collapsible=0;dropTarget=0;points=[[0,0.5],[1,0.5]];portConstraint=eastwest;top=0;left=0;right=0;bottom=0;html=1;" vertex="1" parent="UMMroq3Rx2yGk2AZ-Iq6-19">
          <mxGeometry y="130" width="520" height="30" as="geometry" />
        </mxCell>
        <mxCell id="UMMroq3Rx2yGk2AZ-Iq6-27" value="" style="shape=partialRectangle;connectable=0;fillColor=none;top=0;left=0;bottom=0;right=0;editable=1;overflow=hidden;html=1;whiteSpace=wrap;" vertex="1" parent="UMMroq3Rx2yGk2AZ-Iq6-26">
          <mxGeometry width="125" height="30" as="geometry">
            <mxRectangle width="125" height="30" as="alternateBounds" />
          </mxGeometry>
        </mxCell>
        <mxCell id="UMMroq3Rx2yGk2AZ-Iq6-28" value="&lt;u&gt;C6H12O6&amp;nbsp; &amp;nbsp; &amp;nbsp; &amp;nbsp; &amp;nbsp; &amp;nbsp; &amp;nbsp; &amp;nbsp; &amp;nbsp; &amp;nbsp;вес = 12*6+1*12+16*6 = 180 gramm&lt;/u&gt;" style="shape=partialRectangle;connectable=0;fillColor=none;top=0;left=0;bottom=0;right=0;align=left;spacingLeft=6;overflow=hidden;html=1;whiteSpace=wrap;" vertex="1" parent="UMMroq3Rx2yGk2AZ-Iq6-26">
          <mxGeometry x="125" width="395" height="30" as="geometry">
            <mxRectangle width="395" height="30" as="alternateBounds" />
          </mxGeometry>
        </mxCell>
        <mxCell id="UMMroq3Rx2yGk2AZ-Iq6-29" value="" style="shape=tableRow;horizontal=0;startSize=0;swimlaneHead=0;swimlaneBody=0;fillColor=none;collapsible=0;dropTarget=0;points=[[0,0.5],[1,0.5]];portConstraint=eastwest;top=0;left=0;right=0;bottom=0;html=1;" vertex="1" parent="UMMroq3Rx2yGk2AZ-Iq6-19">
          <mxGeometry y="160" width="520" height="90" as="geometry" />
        </mxCell>
        <mxCell id="UMMroq3Rx2yGk2AZ-Iq6-30" value="&lt;b&gt;&lt;font style=&quot;font-size: 16px;&quot;&gt;1 mol glucose&lt;/font&gt;&lt;/b&gt;" style="shape=partialRectangle;connectable=0;fillColor=none;top=0;left=0;bottom=0;right=0;editable=1;overflow=hidden;html=1;whiteSpace=wrap;" vertex="1" parent="UMMroq3Rx2yGk2AZ-Iq6-29">
          <mxGeometry width="125" height="90" as="geometry">
            <mxRectangle width="125" height="90" as="alternateBounds" />
          </mxGeometry>
        </mxCell>
        <mxCell id="UMMroq3Rx2yGk2AZ-Iq6-31" value="&lt;u&gt;&lt;b&gt;&lt;font style=&quot;font-size: 21px;&quot;&gt;1 mol gluc = 180 gramm&lt;/font&gt;&lt;/b&gt;&lt;/u&gt;" style="shape=partialRectangle;connectable=0;fillColor=none;top=0;left=0;bottom=0;right=0;align=left;spacingLeft=6;overflow=hidden;html=1;whiteSpace=wrap;" vertex="1" parent="UMMroq3Rx2yGk2AZ-Iq6-29">
          <mxGeometry x="125" width="395" height="90" as="geometry">
            <mxRectangle width="395" height="90" as="alternateBounds" />
          </mxGeometry>
        </mxCell>
      </root>
    </mxGraphModel>
  </diagram>
</mxfile>
